# xmcd CD database file
#
# Track frame offsets:
#	150
#	25548
#	38835
#	52124
#	65653
#	80376
#	95985
#	108127
#	122731
#	136997
#	151235
#	165561
#	178470
#	193363
#	208394
#	223384
#
# Disc length: 3186 seconds
#
# Revision: 0
# Processed by: cddbd v1.5.1PL2 Copyright (c) Steve Scherf et al.
# Submitted via: CDex 1.51
#
DISCID=f50c7010
DTITLE=Duke Ellington - The Essential Duke Ellington - CD 3
DYEAR=1900
DGENRE=Jazz
TTITLE0=Tiger Rag
TTITLE1=Jump for Joy
TTITLE2=Moon Over Dixie
TTITLE3=Moon Mist
TTITLE4=I'm Beginning to See The Light
TTITLE5=What Am I Here For
TTITLE6=Johnny Come Lately
TTITLE7=Misty Mornin'
TTITLE8=It Don't Mean a Thing
TTITLE9=Crescendo in Blue
TTITLE10=Things Ain't What they Used to Be
TTITLE11=Main Stem
TTITLE12=Concerto for Cootie
TTITLE13=I Can't Give You Anything But Love
TTITLE14=Live and Love Tonight
TTITLE15=Warm Valley
EXTD=
EXTT0=
EXTT1=
EXTT2=
EXTT3=
EXTT4=
EXTT5=
EXTT6=
EXTT7=
EXTT8=
EXTT9=
EXTT10=
EXTT11=
EXTT12=
EXTT13=
EXTT14=
EXTT15=
PLAYORDER=
